<?xml version="1.0" encoding="UTF-8"?><svg id="_レイヤー_2" xmlns="http://www.w3.org/2000/svg" viewBox="0 0 299 94"><defs><style>.cls-1{fill:#f4e22a;}.cls-2{fill:#fff;}.cls-3{fill:#112938;}.cls-4{fill:none;}</style></defs><g id="_レイヤー_1-2"><g id="_ートワーク_3"><g><g><path class="cls-1" d="M69.38,41.58c-1.83-1.56-3.87-.1-4.75,.81-.97,1.01-2.07,3.38-4.87,3.96-2.36,.49-5.44-.33-6.6-4.11-.86-2.8,.77-7.41,5.95-7.31,4.17,.08,7.27,.91,7.87-2.32,.64-3.47-5.49-5.75-8.94-5.75-3.23,0-7.42,.21-11.28,3.36l-.22,.17c-.95-.97-1.63-1.18-2.46-1.37-1.55-.36-3.19-.06-4.2,1.39v.05c-1.93-.98-4.33-.07-5.12,2.04l.02,.15c-.73-.53-1.5-.83-2.21-.95-2.48-.4-6.23,2.02-7.28,8.6-1.05,6.58,.78,14.89,6.05,20.69,5.27,5.79,14.3,7.41,20.09,5.96,5.79-1.45,9.15-4.61,10.88-6.33,2.85-2.85,5.54-6.66,7.39-11.72,.96-2.62,1.28-5.96-.31-7.32h0Z"/><g><path class="cls-3" d="M69.85,41.06c-1.98-1.7-4.33-.6-5.73,.85-.23,.24-.47,.54-.72,.86-.88,1.11-1.97,2.5-3.92,2.9-2.09,.44-4.75-.54-5.66-3.71-.36-1.26-.2-3.29,1.02-4.76,.97-1.17,2.42-1.71,4.19-1.55,4.64,.42,8.22,.47,8.64-2.95,.13-1.04-.18-2.01-.9-2.9-1.88-2.31-6.23-3.45-8.69-3.65-4.6-.38-8.44,.67-11.73,3.18-.87-.62-1.65-.89-2.13-1-1.86-.44-3.51,.03-4.61,1.25-.84-.35-1.75-.42-2.63-.16-1.1,.32-2.02,1.09-2.6,2.15-.58-.3-1.16-.49-1.72-.58-1.59-.25-3.34,.43-4.8,1.88-1.16,1.16-2.67,3.37-3.31,7.32-1.19,7.46,1.25,15.82,6.23,21.29,4.23,4.65,10.75,6.7,16.27,6.7,1.63,0,3.17-.18,4.53-.52,6.21-1.55,9.65-4.99,11.11-6.46,3.4-3.4,5.98-7.45,7.66-12.05,.99-2.69,1.44-6.43-.52-8.11h0Zm-25.94-11.32c.94,.22,3.27,1.18,4.68,5.34,1.31,3.86,.7,7.93-.12,9.46-.87,1.63-2.55,2.44-4.4,2.2,.72-1.54,1.11-3.56,1.11-5.98,0-4.51-2.13-8.56-4.32-10.39,.98-.93,2.3-.81,3.05-.63h0Zm-6.51,1.07c.79-.23,1.62-.06,2.34,.48,1.99,1.51,4.01,5.24,4.01,9.46,0,2.23-.41,7.49-4.24,8-.77,.1-1.39-.12-1.79-.35,.99-1.51,1.47-3.73,1.42-6.63-.09-4.82-1.66-7.8-3.56-9.38,.4-.79,1.04-1.36,1.82-1.59Zm31.63,17.87c-1.61,4.4-4.08,8.28-7.33,11.53-1.39,1.39-4.63,4.63-10.45,6.08-5.6,1.4-14.3-.14-19.4-5.75-4.69-5.16-7-13.05-5.87-20.1,.57-3.57,1.89-5.52,2.9-6.53,1.11-1.11,2.44-1.66,3.56-1.48,2.35,.38,5.14,3.06,5.26,9.39,.06,3.26-.6,5.57-1.92,6.67-1.03,.86-2.29,.83-3.17,.65-.95-.19-1.74-1.01-2.11-2.2-.43-1.38-.17-2.83,.66-3.69,.27-.28,.27-.74-.01-1.01-.28-.27-.74-.27-1.01,.02-1.19,1.23-1.58,3.23-1,5.11,.53,1.69,1.72,2.88,3.19,3.18,1.7,.34,3.21,.01,4.37-.95,.02-.02,.04-.05,.07-.07,.5,.32,1.32,.7,2.36,.7,.18,0,.37-.01,.57-.04,1.47-.2,2.67-.93,3.58-2.12,.48,.11,.95,.16,1.41,.16,2.12,0,4.02-1.09,5.04-3,1.14-2.14,1.53-6.69,.21-10.59-.68-2.01-1.58-3.38-2.48-4.32,2.94-2.16,6.39-3.05,10.51-2.72,2.68,.22,6.28,1.39,7.7,3.13,.48,.59,.67,1.18,.59,1.83-.22,1.8-1.81,2.18-7.1,1.7-2.86-.26-4.53,.98-5.43,2.06-1.56,1.88-1.77,4.4-1.29,6.06,1.11,3.86,4.52,5.3,7.32,4.71,2.46-.51,3.83-2.26,4.75-3.42,.24-.3,.45-.57,.63-.76,.49-.51,2.23-2.08,3.77-.76,1.25,1.07,1,4.1,.11,6.53h0Z"/><circle class="cls-3" cx="40.62" cy="54.86" r="1.71"/><circle class="cls-3" cx="52.8" cy="54.86" r="1.71"/><path class="cls-3" d="M46.72,62.92c-2.27,0-3.64-1.4-3.69-1.46-.27-.29-.26-.74,.02-1.01,.28-.27,.74-.26,1.01,.02,.05,.05,1.03,1.02,2.66,1.02s2.62-1.01,2.63-1.02c.27-.29,.72-.3,1.01-.03s.3,.72,.03,1.01c-.06,.06-1.4,1.47-3.67,1.47h0Z"/></g></g><path class="cls-3" d="M137.41,39.39c-6.35,0-11.52,5.17-11.52,11.52s5.17,11.52,11.52,11.52,11.52-5.17,11.52-11.52-5.17-11.52-11.52-11.52Zm0,16.96c-3,0-5.44-2.44-5.44-5.44s2.44-5.44,5.44-5.44,5.44,2.44,5.44,5.44-2.44,5.44-5.44,5.44Z"/><path class="cls-3" d="M185.62,39.39c-6.35,0-11.52,5.17-11.52,11.52s5.17,11.52,11.52,11.52,11.52-5.17,11.52-11.52-5.17-11.52-11.52-11.52Zm5.44,11.52c0,3-2.44,5.44-5.44,5.44s-5.44-2.44-5.44-5.44,2.44-5.44,5.44-5.44,5.44,2.44,5.44,5.44Z"/><path class="cls-3" d="M113.5,39.39h-.18c-1.68,0-3.33,.39-4.83,1.13v-6.78c0-1.06-.86-1.92-1.92-1.92h-2.24c-1.06,0-1.92,.86-1.92,1.92v26.77c0,1.06,.86,1.92,1.92,1.92h2.24c1.06,0,1.92-.86,1.92-1.92v-10.02c0-2.57,1.91-4.76,4.36-4.99,.16-.01,.31-.02,.47-.02,2.66,0,4.83,2.16,4.83,4.83v10.21c0,1.06,.86,1.92,1.92,1.92h2.24c1.06,0,1.92-.86,1.92-1.92v-9.97c0-6.05-4.81-11.05-10.73-11.15h0Z"/><path class="cls-2" d="M137.41,60.8c-5.45,0-9.89-4.44-9.89-9.89s4.44-9.89,9.89-9.89,9.89,4.44,9.89,9.89-4.44,9.89-9.89,9.89Zm0-16.96c-3.9,0-7.08,3.17-7.08,7.07s3.17,7.07,7.08,7.07,7.08-3.17,7.08-7.07-3.17-7.07-7.08-7.07Z"/><path class="cls-2" d="M185.62,60.8c-5.45,0-9.89-4.44-9.89-9.89s4.44-9.89,9.89-9.89,9.89,4.44,9.89,9.89-4.44,9.89-9.89,9.89Zm0-16.96c-3.9,0-7.08,3.17-7.08,7.07s3.17,7.07,7.08,7.07,7.08-3.17,7.08-7.07-3.17-7.07-7.08-7.07Z"/><path class="cls-2" d="M113.48,41.02c-2.57-.04-4.91,.97-6.61,2.63v-9.92c0-.16-.13-.29-.29-.29h-2.24c-.16,0-.29,.13-.29,.29v26.77c0,.16,.13,.29,.29,.29h2.24c.16,0,.29-.13,.29-.29v-10.02c0-3.36,2.49-6.3,5.84-6.62,3.84-.36,7.08,2.66,7.08,6.43v10.21c0,.16,.13,.29,.29,.29h2.24c.16,0,.29-.13,.29-.29v-9.97c0-5.1-4.02-9.43-9.12-9.51h0Z"/><path class="cls-3" d="M100.46,53.36c-.3-.44-.81-.7-1.34-.7h-3.08c-.6,0-1.15,.33-1.43,.85-1.1,2.01-3.27,3.11-5.55,2.79-2.4-.33-4.35-2.32-4.63-4.74-.18-1.58,.3-3.09,1.34-4.26,1.03-1.16,2.52-1.83,4.06-1.83,1.98,0,3.81,1.09,4.77,2.84,.29,.52,.84,.85,1.43,.85h3.07c.53,0,1.03-.26,1.34-.7,.3-.44,.38-1,.2-1.5-1.66-4.53-6-7.58-10.81-7.58-3.38,0-6.58,1.48-8.78,4.06-2.19,2.57-3.14,5.99-2.6,9.36,.77,4.8,5.18,9,10.03,9.55,.44,.05,.89,.08,1.33,.08,4.82,0,9.17-3.05,10.82-7.58,.18-.5,.11-1.06-.2-1.5h0Z"/><path class="cls-2" d="M96.04,54.29c-1.35,2.47-4.12,4.05-7.2,3.62-3.15-.44-5.66-3.01-6.02-6.17-.49-4.27,2.85-7.91,7.03-7.91,2.68,0,5,1.5,6.2,3.69h3.07c-1.39-3.79-5.01-6.51-9.28-6.51-5.99,0-10.75,5.35-9.76,11.53,.67,4.13,4.45,7.71,8.6,8.19,4.75,.54,8.93-2.32,10.43-6.44h-3.08Z"/><path class="cls-3" d="M172.58,53.36c-.3-.44-.81-.7-1.34-.7h-3.08c-.6,0-1.15,.33-1.43,.85-1.1,2.01-3.28,3.1-5.55,2.79-2.4-.33-4.35-2.32-4.63-4.74-.18-1.58,.3-3.09,1.34-4.26,1.03-1.16,2.52-1.83,4.06-1.83,1.98,0,3.81,1.09,4.77,2.84,.29,.52,.84,.85,1.43,.85h3.07c.53,0,1.03-.26,1.34-.7s.38-1,.2-1.5c-1.66-4.53-6-7.58-10.81-7.58-3.38,0-6.58,1.48-8.78,4.06-2.19,2.57-3.14,5.99-2.6,9.36,.77,4.8,5.18,9,10.03,9.55,.44,.05,.89,.08,1.33,.08,4.82,0,9.17-3.05,10.82-7.58,.18-.5,.11-1.06-.2-1.5h0Z"/><path class="cls-2" d="M168.17,54.29c-1.35,2.47-4.12,4.05-7.2,3.62-3.15-.44-5.66-3.01-6.02-6.17-.49-4.27,2.85-7.91,7.03-7.91,2.68,0,5,1.5,6.2,3.69h3.07c-1.39-3.79-5.01-6.51-9.28-6.51-5.99,0-10.75,5.35-9.76,11.53,.67,4.13,4.45,7.71,8.6,8.19,4.75,.54,8.93-2.32,10.43-6.44h-3.08Z"/><path class="cls-3" d="M237.75,32.57c-6.91-.12-12.57,5.72-12.57,12.64v16.51c0,.32,.26,.58,.58,.58h2.96c.32,0,.58-.26,.58-.58v-8.46h16.47v8.46c0,.32,.26,.58,.58,.58h2.96c.32,0,.58-.26,.58-.58v-16.79c0-6.74-5.43-12.24-12.15-12.36h0Zm-8.45,16.57v-4.21c0-4.54,3.7-8.23,8.24-8.23s8.24,3.69,8.24,8.23v4.21h-16.47Z"/><path class="cls-3" d="M266.03,33.4h-11.47c-.48,0-.87,.39-.87,.87v27.45c0,.32,.26,.58,.58,.58h2.96c.32,0,.58-.26,.58-.58v-8.46h8.46c5.6,0,10.14-4.66,9.93-10.32-.2-5.37-4.79-9.55-10.17-9.55h0Zm.24,15.74h-8.46v-11.61h8.46c3.2,0,5.81,2.6,5.81,5.81s-2.61,5.81-5.81,5.81Z"/><path class="cls-3" d="M199.84,61.72v-3.1c0-.13,.04-.26,.13-.36l16.16-20.09h-15.71c-.32,0-.58-.26-.58-.58v-2.9c0-.32,.26-.58,.58-.58h20.48c.32,0,.58,.26,.58,.58v3.1c0,.13-.04,.26-.13,.36l-16.16,20.09h15.71c.32,0,.58,.26,.58,.58v2.9c0,.32-.26,.58-.58,.58h-20.48c-.32,0-.58-.26-.58-.58h0Z"/></g></g><rect class="cls-4" width="299" height="94"/></g></svg>