<svg width="205" height="35" viewBox="0 0 205 35" fill="none" xmlns="http://www.w3.org/2000/svg">
<path d="M36.6077 12.8778C35.1265 11.5785 33.4647 12.7955 32.7563 13.548C31.9695 14.3847 31.0744 16.3582 28.8005 16.8434C26.8878 17.2504 24.3851 16.572 23.4479 13.4267C22.7534 11.0954 24.074 7.26959 28.2747 7.35388C31.6605 7.42377 34.1712 8.1104 34.6569 5.4235C35.1787 2.53923 30.2014 0.645855 27.4036 0.643799C24.7825 0.643799 21.3786 0.816484 18.2538 3.43761L18.0772 3.58151C17.3025 2.7777 16.7505 2.6009 16.0782 2.44055C14.8178 2.13835 13.4932 2.3871 12.6703 3.5959L12.6783 3.63702C11.1029 2.82499 9.15608 3.57946 8.51785 5.32893L8.5319 5.45228C7.93783 5.01234 7.31767 4.75948 6.74167 4.66491C4.72665 4.33393 1.68807 6.34449 0.833087 11.817C-0.0198839 17.2874 1.4673 24.1969 5.74018 29.0116C10.0131 33.8262 17.3426 35.1686 22.043 33.9639C26.7433 32.7613 29.4688 30.132 30.8677 28.6991C33.1777 26.3329 35.3593 23.167 36.8626 18.9608C37.6413 16.7796 37.9002 14.0084 36.6077 12.8778Z" fill="#FFEB00"/>
<path d="M36.9888 12.4439C35.3792 11.0337 33.4786 11.9444 32.3406 13.1532C32.15 13.3547 31.9573 13.6055 31.7526 13.8707C31.0401 14.7958 30.155 15.947 28.5755 16.2821C26.8816 16.6439 24.7221 15.8339 23.9855 13.2005C23.6925 12.152 23.827 10.4683 24.8144 9.24515C25.6012 8.27071 26.7793 7.8246 28.2183 7.95823C31.9854 8.30771 34.8915 8.34883 35.2327 5.50773C35.3351 4.64636 35.0902 3.83433 34.5002 3.09425C32.9749 1.1762 29.4466 0.228484 27.4476 0.0619652C23.7166 -0.250514 20.5977 0.617027 17.9325 2.7057C17.23 2.19381 16.5958 1.96768 16.2024 1.87517C14.6912 1.51335 13.3565 1.89778 12.4654 2.91745C11.781 2.62347 11.0465 2.57208 10.328 2.78588C9.43285 3.05313 8.68826 3.69453 8.21662 4.57647C7.74899 4.32772 7.27735 4.16531 6.81975 4.0913C5.52725 3.87955 4.1063 4.44901 2.92619 5.65781C1.98491 6.62197 0.756635 8.45984 0.242846 11.7388C-0.726531 17.9411 1.25638 24.8876 5.29444 29.435C8.72439 33.2999 14.0208 35 18.4984 35C19.819 35 21.0674 34.852 22.1772 34.5683C27.2128 33.2793 30.0045 30.4197 31.1947 29.2006C33.9523 26.376 36.0435 23.0066 37.4083 19.1849C38.2091 16.9461 38.5784 13.8378 36.9868 12.4419L36.9888 12.4439ZM15.9415 3.03463C16.7022 3.21554 18.5928 4.01318 19.7388 7.47512C20.7984 10.6801 20.3087 14.0639 19.6444 15.3405C18.938 16.6953 17.5792 17.3696 16.07 17.1681C16.658 15.8853 16.9711 14.2058 16.9711 12.1952C16.9711 8.44545 15.2431 5.08424 13.4689 3.56296C14.2677 2.7941 15.3314 2.89072 15.9415 3.03668V3.03463ZM10.6571 3.92889C11.3014 3.73771 11.9757 3.87955 12.5577 4.33183C14.1734 5.5838 15.8091 8.68598 15.8091 12.1952C15.8091 14.0516 15.4739 18.4181 12.3711 18.8436C11.7469 18.9299 11.2472 18.7408 10.918 18.5558C11.7248 17.2997 12.1142 15.4577 12.07 13.0463C11.9958 9.03751 10.7213 6.56441 9.18399 5.24665C9.50511 4.5888 10.0289 4.11597 10.6571 3.92889ZM36.3225 18.7799C35.016 22.4371 33.015 25.6606 30.3778 28.3619C29.2539 29.5131 26.6227 32.2082 21.8983 33.417C17.3565 34.5806 10.2959 33.2999 6.15745 28.6373C2.34818 24.3469 0.477664 17.7869 1.39285 11.9279C1.85647 8.96351 2.93021 7.33944 3.74906 6.50068C4.64819 5.57763 5.72996 5.11714 6.63712 5.26721C8.54576 5.58174 10.8076 7.81227 10.908 13.0689C10.9582 15.7784 10.4203 17.6965 9.34856 18.6113C8.51365 19.3247 7.49009 19.2979 6.77761 19.152C6.00492 18.9916 5.36469 18.3091 5.06564 17.3203C4.71643 16.1711 4.92716 14.9664 5.5995 14.2551C5.82228 14.0187 5.81626 13.6425 5.58746 13.4143C5.35866 13.1861 4.98938 13.1923 4.7666 13.4287C3.80325 14.4483 3.48414 16.1135 3.95779 17.6739C4.38527 19.0821 5.35264 20.0709 6.54881 20.3176C7.92761 20.6013 9.15188 20.3279 10.0932 19.5261C10.1132 19.5097 10.1293 19.4871 10.1473 19.4706C10.5568 19.7379 11.2171 20.0565 12.062 20.0565C12.2105 20.0565 12.3651 20.0462 12.5236 20.0236C13.7178 19.8592 14.6932 19.2506 15.4257 18.2598C15.8131 18.3482 16.1984 18.3913 16.5737 18.3913C18.2937 18.3913 19.8391 17.4888 20.666 15.9018C21.5932 14.1215 21.9103 10.3409 20.8346 7.09685C20.2826 5.42756 19.5561 4.29071 18.8256 3.50951C21.2119 1.71276 24.0076 0.972677 27.3533 1.25226C29.5248 1.43523 32.453 2.40761 33.601 3.85077C33.9884 4.33799 34.1449 4.83344 34.0807 5.36794C33.9021 6.86044 32.6116 7.17703 28.3227 6.78026C26.0006 6.56441 24.6458 7.5923 23.9193 8.49273C22.6569 10.0572 22.4823 12.15 22.8697 13.5335C23.7688 16.7446 26.5384 17.9349 28.8124 17.4518C30.8053 17.0263 31.9232 15.5728 32.6638 14.6128C32.8584 14.3599 33.025 14.142 33.1756 13.9837C33.577 13.5582 34.9818 12.2548 36.2342 13.3526C37.2477 14.2407 37.045 16.757 36.3205 18.784L36.3225 18.7799Z" fill="#122939"/>
<path d="M13.2662 25.3378C14.0322 25.3378 14.6531 24.7018 14.6531 23.9173C14.6531 23.1327 14.0322 22.4967 13.2662 22.4967C12.5003 22.4967 11.8794 23.1327 11.8794 23.9173C11.8794 24.7018 12.5003 25.3378 13.2662 25.3378Z" fill="#122939"/>
<path d="M23.1525 25.3378C23.9184 25.3378 24.5393 24.7018 24.5393 23.9173C24.5393 23.1327 23.9184 22.4967 23.1525 22.4967C22.3865 22.4967 21.7656 23.1327 21.7656 23.9173C21.7656 24.7018 22.3865 25.3378 23.1525 25.3378Z" fill="#122939"/>
<path d="M18.2214 30.615C16.381 30.615 15.2711 29.4474 15.2249 29.398C15.0022 29.1595 15.0102 28.7833 15.243 28.5551C15.4738 28.329 15.8411 28.3352 16.0639 28.5716C16.104 28.6127 16.9028 29.4227 18.2234 29.4227C19.544 29.4227 20.3468 28.586 20.3548 28.5778C20.5736 28.3372 20.9409 28.3249 21.1757 28.549C21.4105 28.7731 21.4225 29.1513 21.2038 29.3898C21.1576 29.4391 20.0678 30.6109 18.2234 30.6109L18.2214 30.615Z" fill="#122939"/>
<path d="M91.8096 11.0583C86.6536 11.0583 82.459 15.3549 82.459 20.6362C82.459 25.9176 86.6536 30.2121 91.8096 30.2121C96.9655 30.2121 101.16 25.9155 101.16 20.6362C101.16 15.357 96.9655 11.0583 91.8096 11.0583ZM91.8096 25.1569C89.3751 25.1569 87.3942 23.1279 87.3942 20.6342C87.3942 18.1405 89.3751 16.1115 91.8096 16.1115C94.244 16.1115 96.2249 18.1405 96.2249 20.6342C96.2249 23.1279 94.244 25.1569 91.8096 25.1569Z" fill="#122939"/>
<path d="M130.932 11.0583C125.776 11.0583 121.582 15.3549 121.582 20.6362C121.582 25.9176 125.776 30.2121 130.932 30.2121C136.088 30.2121 140.283 25.9155 140.283 20.6362C140.283 15.357 136.088 11.0583 130.932 11.0583ZM135.347 20.6362C135.347 23.1299 133.367 25.159 130.932 25.159C128.498 25.159 126.517 23.1299 126.517 20.6362C126.517 18.1426 128.498 16.1135 130.932 16.1135C133.367 16.1135 135.347 18.1426 135.347 20.6362Z" fill="#122939"/>
<path d="M72.41 11.0604H72.2635C70.9008 11.0604 69.5581 11.3811 68.3459 11.9979V6.36297C68.3459 5.48104 67.6454 4.76562 66.7844 4.76562H64.9701C64.1091 4.76562 63.4087 5.48309 63.4087 6.36297V28.6127C63.4087 29.4946 64.1091 30.2101 64.9701 30.2101H66.7844C67.6454 30.2101 68.3459 29.4926 68.3459 28.6127V20.2806C68.3459 18.1447 69.8993 16.3212 71.8822 16.13C72.0086 16.1177 72.1371 16.1115 72.2635 16.1115C74.4231 16.1115 76.1812 17.9103 76.1812 20.1223V28.6107C76.1812 29.4926 76.8816 30.208 77.7426 30.208H79.5569C80.4179 30.208 81.1184 29.4905 81.1184 28.6107V20.3217C81.1184 15.2933 77.2128 11.1365 72.4141 11.0563L72.41 11.0604Z" fill="#122939"/>
<path d="M91.8096 28.8553C87.3842 28.8553 83.7837 25.1672 83.7837 20.6363C83.7837 16.1053 87.3842 12.4172 91.8096 12.4172C96.2351 12.4172 99.8356 16.1053 99.8356 20.6363C99.8356 25.1672 96.2351 28.8553 91.8096 28.8553ZM91.8096 14.7567C88.6446 14.7567 86.0676 17.3943 86.0676 20.6363C86.0676 23.8782 88.6426 26.5158 91.8096 26.5158C94.9767 26.5158 97.5516 23.8782 97.5516 20.6363C97.5516 17.3943 94.9767 14.7567 91.8096 14.7567Z" fill="white"/>
<path d="M130.932 28.8553C126.507 28.8553 122.906 25.1672 122.906 20.6363C122.906 16.1053 126.507 12.4172 130.932 12.4172C135.358 12.4172 138.958 16.1053 138.958 20.6363C138.958 25.1672 135.358 28.8553 130.932 28.8553ZM130.932 14.7567C127.767 14.7567 125.19 17.3943 125.19 20.6363C125.19 23.8782 127.765 26.5158 130.932 26.5158C134.099 26.5158 136.674 23.8782 136.674 20.6363C136.674 17.3943 134.099 14.7567 130.932 14.7567Z" fill="white"/>
<path d="M72.388 12.4172C70.3007 12.3823 68.4041 13.2252 67.0213 14.6046V6.36296C67.0213 6.22934 66.9149 6.12244 66.7864 6.12244H64.9721C64.8417 6.12244 64.7373 6.23139 64.7373 6.36296V28.6127C64.7373 28.7463 64.8437 28.8532 64.9721 28.8532H66.7864C66.9169 28.8532 67.0213 28.7443 67.0213 28.6127V20.2806C67.0213 17.4868 69.0423 15.0404 71.7578 14.7793C74.8746 14.4792 77.5058 16.9914 77.5058 20.1223V28.6107C77.5058 28.7443 77.6121 28.8512 77.7406 28.8512H79.5549C79.6854 28.8512 79.7897 28.7422 79.7897 28.6107V20.3217C79.7897 16.0807 76.5284 12.483 72.388 12.4131V12.4172Z" fill="white"/>
<path d="M61.8275 22.6674C61.5806 22.3035 61.1732 22.0876 60.7417 22.0876H58.243C57.7593 22.0876 57.3138 22.359 57.0809 22.7948C56.1898 24.4662 54.4237 25.3769 52.5813 25.1138C50.6305 24.8383 49.053 23.1813 48.8282 21.1749C48.6817 19.8653 49.069 18.6072 49.918 17.6328C50.7569 16.6686 51.9591 16.1156 53.2135 16.1156C54.8231 16.1156 56.3062 17.0201 57.085 18.4777C57.3178 18.9135 57.7633 19.1849 58.249 19.1849H60.7417C61.1732 19.1849 61.5806 18.969 61.8275 18.6051C62.0743 18.2433 62.1345 17.7767 61.986 17.3614C60.6413 13.5932 57.1171 11.0604 53.2135 11.0604C50.4719 11.0604 47.8769 12.2898 46.0927 14.434C44.3125 16.574 43.5438 19.409 43.9853 22.213C44.6135 26.2033 48.19 29.6899 52.1257 30.1504C52.4829 30.1915 52.8462 30.2142 53.2034 30.2142C57.1131 30.2142 60.6434 27.6814 61.986 23.9132C62.1345 23.4979 62.0743 23.0333 61.8275 22.6694V22.6674Z" fill="#122939"/>
<path d="M58.2427 23.4444C57.1489 25.494 54.903 26.8118 52.3983 26.4561C49.8434 26.0943 47.8043 23.9522 47.5093 21.327C47.1119 17.7766 49.8233 14.7546 53.2111 14.7546C55.3827 14.7546 57.2713 15.9984 58.2447 17.8239H60.7394C59.6154 14.6744 56.6712 12.4131 53.2111 12.4131C48.3502 12.4131 44.4847 16.8618 45.2916 21.993C45.8314 25.4241 48.9021 28.405 52.2739 28.7977C56.1313 29.2479 59.5171 26.8735 60.7394 23.4424H58.2407L58.2427 23.4444Z" fill="white"/>
<path d="M120.351 22.6674C120.104 22.3035 119.697 22.0877 119.265 22.0877H116.766C116.283 22.0877 115.835 22.359 115.604 22.7949C114.713 24.4662 112.945 25.3749 111.105 25.1138C109.154 24.8383 107.576 23.1813 107.352 21.1749C107.205 19.8654 107.592 18.6072 108.441 17.6328C109.28 16.6686 110.483 16.1156 111.737 16.1156C113.347 16.1156 114.83 17.0202 115.608 18.4798C115.841 18.9156 116.287 19.187 116.772 19.187H119.265C119.697 19.187 120.104 18.9711 120.351 18.6072C120.598 18.2434 120.658 17.7787 120.509 17.3635C119.165 13.5952 115.641 11.0625 111.737 11.0625C108.995 11.0625 106.4 12.2919 104.616 14.436C102.836 16.5761 102.067 19.411 102.509 22.2151C103.137 26.2054 106.713 29.692 110.649 30.1525C111.006 30.1936 111.37 30.2162 111.727 30.2162C115.636 30.2162 119.167 27.6835 120.509 23.9153C120.658 23.5 120.598 23.0354 120.351 22.6715V22.6674Z" fill="#122939"/>
<path d="M116.767 23.4444C115.673 25.494 113.427 26.8118 110.922 26.4561C108.367 26.0943 106.328 23.9522 106.033 21.327C105.636 17.7766 108.347 14.7546 111.735 14.7546C113.907 14.7546 115.795 15.9984 116.769 17.8239H119.263C118.139 14.6744 115.195 12.4131 111.735 12.4131C106.874 12.4131 103.009 16.8618 103.815 21.993C104.355 25.4241 107.426 28.405 110.798 28.7977C114.655 29.2479 118.041 26.8735 119.263 23.4424H116.765L116.767 23.4444Z" fill="white"/>
<path d="M173.229 5.39058C167.62 5.29396 163.028 10.1477 163.028 15.8936V29.62C163.028 29.8873 163.239 30.1031 163.499 30.1031H165.904C166.165 30.1031 166.375 29.8873 166.375 29.62V22.5893H179.742V29.62C179.742 29.8873 179.953 30.1031 180.214 30.1031H182.618C182.879 30.1031 183.09 29.8873 183.09 29.62V15.6613C183.09 10.0552 178.682 5.48514 173.231 5.39058H173.229ZM166.373 19.1623V15.6613C166.373 11.8869 169.372 8.81757 173.057 8.81757C176.742 8.81757 179.74 11.8869 179.74 15.6613V19.1623H166.373Z" fill="#122939"/>
<path d="M196.175 6.07715H186.871C186.48 6.07715 186.163 6.40196 186.163 6.80284V29.622C186.163 29.8893 186.373 30.1051 186.634 30.1051H189.039C189.3 30.1051 189.51 29.8893 189.51 29.622V22.5913H196.372C200.92 22.5913 204.601 18.714 204.428 14.0166C204.264 9.54937 200.541 6.0792 196.175 6.0792V6.07715ZM196.374 19.1602H189.512V9.5062H196.374C198.973 9.5062 201.089 11.6709 201.089 14.3332C201.089 16.9954 198.973 19.1602 196.374 19.1602Z" fill="#122939"/>
<path d="M142.468 29.622V27.0482C142.468 26.9372 142.504 26.8303 142.573 26.746L155.684 10.0469H142.94C142.679 10.0469 142.468 9.83102 142.468 9.56377V7.15645C142.468 6.8892 142.679 6.67334 142.94 6.67334H159.56C159.821 6.67334 160.031 6.8892 160.031 7.15645V9.73029C160.031 9.8413 159.995 9.9482 159.927 10.0325L146.815 26.7296H159.56C159.821 26.7296 160.031 26.9454 160.031 27.2127V29.62C160.031 29.8872 159.821 30.1031 159.56 30.1031H142.94C142.679 30.1031 142.468 29.8872 142.468 29.62V29.622Z" fill="#122939"/>
</svg>
